<svg width="22" height="19" viewBox="0 0 22 19" fill="none" xmlns="http://www.w3.org/2000/svg">
<path d="M19.4191 7V6L12.9461 0H2.15768C0.960166 0 0 0.89 0 2V16C0 17.11 0.970954 18 2.15768 18H8.6307V16.13L17.6822 7.74C18.1568 7.3 18.761 7.06 19.4191 7ZM11.8672 1.5L17.8008 7H11.8672V1.5ZM21.4149 11.19L20.3577 12.17L18.1568 10.13L19.2141 9.15C19.4191 8.95 19.7751 8.95 19.9909 9.15L21.4149 10.47C21.6307 10.67 21.6307 11 21.4149 11.19ZM17.4017 10.83L19.6025 12.87L12.9892 19H10.7884V16.96L17.4017 10.83Z" fill="black"/>
</svg>
