<svg width="10" height="19" viewBox="0 0 10 19" fill="none" xmlns="http://www.w3.org/2000/svg">
<path d="M0 12.6667H2C2 13.8067 3.37 14.7778 5 14.7778C6.63 14.7778 8 13.8067 8 12.6667C8 11.5056 6.96 11.0833 4.76 10.5239C2.64 9.96445 0 9.26778 0 6.33333C0 4.44389 1.47 2.83944 3.5 2.30111V0H6.5V2.30111C8.53 2.83944 10 4.44389 10 6.33333H8C8 5.19333 6.63 4.22222 5 4.22222C3.37 4.22222 2 5.19333 2 6.33333C2 7.49444 3.04 7.91667 5.24 8.47611C7.36 9.03556 10 9.73222 10 12.6667C10 14.5561 8.53 16.1606 6.5 16.6989V19H3.5V16.6989C1.47 16.1606 0 14.5561 0 12.6667Z" fill="black"/>
</svg>
